<?xml version="1.0" encoding="utf-8"?>
<!-- Generator: Adobe Illustrator 18.1.1, SVG Export Plug-In . SVG Version: 6.00 Build 0)  -->
<svg version="1.1" id="Capa_1" xmlns="http://www.w3.org/2000/svg" xmlns:xlink="http://www.w3.org/1999/xlink" x="0px" y="0px"
	 viewBox="0 0 1024 1450" enable-background="new 0 0 1024 1450" xml:space="preserve">
<g>
	<g>
		<path fill="#333333" d="M247,371.6c0-67,56.5-123.5,123.5-123.5s123.7,56.5,123.7,123.5v99c21.2-28.2,35.3-63.5,35.3-98.8
			c0-88.3-70.7-159-159-159s-158.8,70.5-158.8,158.8c0,38.8,14,74.2,35.3,98.8V371.6z"/>
		<path fill="#333333" d="M794.5,636.6c-21.2,0-38.8,7-53,17.7l0,0c0-49.5-38.8-88.3-88.3-88.3c-21.2,0-42.3,7-60,21.2
			c-14-35.3-46-56.5-81.2-56.5c-21.2,0-38.8,7-53,17.7V372c0-49.5-38.8-88.3-88.3-88.3s-88.3,38.8-88.3,88.3v314.3
			c-70.5-63.5-148.3-113-197.7-63.5c-70.5,70.5,77.7,208.3,190.7,416.7c81.2,144.8,194.2,197.7,307.2,197.7
			c166,0,300.2-134.2,300.2-300.2V724.8C882.7,675.3,843.9,636.6,794.5,636.6z M847.5,802.5v134.2c0,137.7-120,264.8-264.8,264.8
			c-134.2,0-212-74.2-275.5-176.5C173,791.8,74,686,109.5,647.1c38.8-38.8,134.2,46,208.3,123.5v-399c0-28.2,24.7-53,53-53
			c28.2,0,53,24.7,53,53v370.8H459V618.8c0-28.2,24.7-53,53-53c28.2,0,53,24.7,53,53v88.3h35.3v-53c0-28.2,24.7-53,53-53
			c28.2,0,53,24.7,53,53v88.3h35.3v-17.7c0-28.2,24.7-53,53-53c28.2,0,53,24.7,53,53V802.5L847.5,802.5z"/>
	</g>
</g>
</svg>
