<?xml version="1.0" encoding="utf-8"?>
<!-- Generator: Adobe Illustrator 18.1.1, SVG Export Plug-In . SVG Version: 6.00 Build 0)  -->
<svg version="1.1" id="Capa_1" xmlns="http://www.w3.org/2000/svg" xmlns:xlink="http://www.w3.org/1999/xlink" x="0px" y="0px"
	 viewBox="0 0 1024 1450" enable-background="new 0 0 1024 1450" xml:space="preserve">
<g>
	<path fill="#333333" d="M226,1227.9c-2.5,0-5.1-0.6-7.4-1.9c-5-2.7-8.2-8-8.2-13.7v-221C74.6,920.7,0,797,0,642.1
		c0-239.4,220.1-420,512-420s512,180.5,512,420c0,239.4-220.1,419.9-512,419.9c-9.6,0-19-0.5-28.4-1H483l-248.5,164.3
		C231.9,1227,228.9,1227.9,226,1227.9z M512,253.2c-274.2,0-481,167.2-481,388.9c0,103.1,35,243.3,201.8,325.8
		c5.3,2.6,8.6,8,8.6,13.9v201.7l228.7-151.2c2.8-1.9,6.2-2.9,9.4-2.5l5.8,0.3c8.9,0.5,17.7,1,26.7,1c274.2,0,481-167.2,481-388.9
		S786.2,253.2,512,253.2z"/>
	<g>
		<path fill="#333333" d="M744.3,511.9H279.7c-8.6,0-15.5-7-15.5-15.5c0-8.6,7-15.5,15.5-15.5h464.6c8.6,0,15.5,7,15.5,15.5
			C759.8,504.9,752.9,511.9,744.3,511.9z"/>
		<path fill="#333333" d="M744.3,662.8H279.7c-8.6,0-15.5-7-15.5-15.5c0-8.6,7-15.5,15.5-15.5h464.6c8.6,0,15.5,7,15.5,15.5
			C759.8,655.9,752.9,662.8,744.3,662.8z"/>
		<path fill="#333333" d="M512,813.8H279.7c-8.6,0-15.5-7-15.5-15.5s7-15.5,15.5-15.5H512c8.6,0,15.5,7,15.5,15.5
			S520.6,813.8,512,813.8z"/>
	</g>
</g>
</svg>
