<?xml version="1.0" encoding="utf-8"?>
<!-- Generator: Adobe Illustrator 18.1.1, SVG Export Plug-In . SVG Version: 6.00 Build 0)  -->
<svg version="1.1" id="Capa_1" xmlns="http://www.w3.org/2000/svg" xmlns:xlink="http://www.w3.org/1999/xlink" x="0px" y="0px"
	 viewBox="0 0 1024 1450" enable-background="new 0 0 1024 1450" xml:space="preserve">
<path image-rendering="auto" color-rendering="auto" shape-rendering="auto" color-interpolation="sRGB" fill="#333333" d="
	M431.1,5.5c-7.9,0.3-15.2,4.3-19.7,11.1l-69.9,104.8H103.7c-13.3,0-24.1,10.8-24.1,24.1v241.1c0,13.3,10.8,24.1,24.1,24.1h241.1
	c13.3,0,24.1-10.8,24.1-24.1V196.3l-48.2,72.3v93.8H127.8V169.6h181.7l-67.9,101.8L212,212.1c-5.8-12-20.2-17-32.3-11.2
	c-12,5.8-17,20.2-11.2,32.3c0.1,0.1,0.1,0.4,0.3,0.6l48.2,96.5c6,11.9,20.5,16.8,32.4,10.8c3.7-1.9,6.9-4.7,9.3-8.2L451.6,43.4
	c7.6-10.9,4.7-26-6.2-33.5C441.4,6.8,436.2,5.3,431.1,5.5L431.1,5.5z M537.8,217.8c-13.3,0-24.1,10.8-24.1,24.1v48.2
	c0,13.3,10.8,24.1,24.1,24.1h434.1c13.3,0,24.1-10.8,24.1-24.1v-48.2c0-13.3-10.8-24.1-24.1-24.1H537.8z M103.7,459.2
	c-13.3,0-24.1,10.8-24.1,24.1v241.1c0,13.3,10.8,24.1,24.1,24.1h241.1c13.3,0,24.1-10.8,24.1-24.1V483.3c0-13.3-10.8-24.1-24.1-24.1
	L103.7,459.2L103.7,459.2z M127.8,507.4h192.9v192.9H127.8V507.4z M537.8,555.5c-13.3,0-24.1,10.8-24.1,24.1v48.2
	c0,13.3,10.8,24.1,24.1,24.1h434.1c13.3,0,24.1-10.8,24.1-24.1v-48.2c0-13.3-10.8-24.1-24.1-24.1H537.8L537.8,555.5z M103.7,796.6
	c-13.3,0-24.1,10.8-24.1,24.1v241.1c0,13.3,10.8,24.1,24.1,24.1h241.1c13.3,0,24.1-10.8,24.1-24.1v-241c0-13.3-10.8-24.1-24.1-24.1
	L103.7,796.6L103.7,796.6z M127.8,844.9h192.9v192.9H127.8V844.9z M537.8,893.3c-13.3,0-24.1,10.8-24.1,24.1v48.2
	c0,13.3,10.8,24.1,24.1,24.1h434.1c13.3,0,24.1-10.8,24.1-24.1v-48.2c0-13.3-10.8-24.1-24.1-24.1H537.8z M103.7,1134.3
	c-13.3,0-24.1,10.8-24.1,24.1v241.1c0,13.3,10.8,24.1,24.1,24.1h241.1c13.3,0,24.1-10.8,24.1-24.1v-241.1
	c0-13.3-10.8-24.1-24.1-24.1H103.7L103.7,1134.3z M127.8,1182.6h192.9v192.9H127.8V1182.6z M537.8,1230.8
	c-13.3,0-24.1,10.8-24.1,24.1v48.2c0,13.3,10.8,24.1,24.1,24.1h434.1c13.3,0,24.1-10.8,24.1-24.1v-48.2c0-13.3-10.8-24.1-24.1-24.1
	H537.8L537.8,1230.8z"/>
</svg>
