<?xml version="1.0" encoding="utf-8"?>
<!-- Generator: Adobe Illustrator 18.1.1, SVG Export Plug-In . SVG Version: 6.00 Build 0)  -->
<svg version="1.1" id="Layer_1" xmlns="http://www.w3.org/2000/svg" xmlns:xlink="http://www.w3.org/1999/xlink" x="0px" y="0px"
	 viewBox="0 0 1024 1450" enable-background="new 0 0 1024 1450" xml:space="preserve">
<path fill="none" d="M-853,1417.8H697v1550H-853V1417.8z"/>
<g>
	<path fill="#333333" d="M818.9,555.8c-6.5,0-19.4,0-25.9-6.5c-12.9-12.9-12.9-32.2,0-45.3l129.1-129.1L793,245.8
		c-12.9-12.9-12.9-32.2,0-45.3c12.9-12.9,32.2-12.9,45.3,0l155,155c6.5,6.5,6.5,12.9,6.5,25.9c0,12.9-6.5,19.4-6.5,25.9l-155,155
		C838.3,555.8,831.8,555.8,818.9,555.8z"/>
	<path fill="#333333" d="M63.3,743.1c-19.4,0-32.2-12.9-32.2-32.2V510.6c0-96.9,77.5-174.4,174.4-174.4H974
		c19.4,0,32.2,12.9,32.2,32.2s-12.9,32.2-32.2,32.2H205.4c-58.1,0-109.7,45.3-109.7,109.7v200.3C95.5,730.2,82.6,743.1,63.3,743.1z"
		/>
	<path fill="#333333" d="M831.8,1150h-775c-19.4,0-32.2-12.9-32.2-32.2s19.4-32.2,38.8-32.2h775c58.1,0,109.7-45.3,109.7-109.7
		V775.5c0-19.4,12.9-32.2,32.2-32.2s32.2,12.9,32.2,32.2v200.3C1006.1,1072.5,928.6,1150,831.8,1150z"/>
	<path fill="#333333" d="M211.8,1305c-6.5,0-19.4,0-25.9-6.5l-155-155c-6.5-6.5-6.5-12.9-6.5-25.9c0-6.5,6.5-19.4,6.5-25.9l155-155
		c12.9-12.9,32.2-12.9,45.3,0c12.9,12.9,12.9,32.2,0,45.3L102,1111l129.1,129.1c12.9,12.9,12.9,32.2,0,45.3
		C231.1,1298.4,224.6,1305,211.8,1305z"/>
</g>
</svg>
