<?xml version="1.0" encoding="utf-8"?>
<!-- Generator: Adobe Illustrator 18.1.1, SVG Export Plug-In . SVG Version: 6.00 Build 0)  -->
<svg version="1.1" id="Layer_1" xmlns="http://www.w3.org/2000/svg" xmlns:xlink="http://www.w3.org/1999/xlink" x="0px" y="0px"
	 viewBox="0 0 1024 1450" enable-background="new 0 0 1024 1450" xml:space="preserve">
<g id="Certificate-file">
	<path fill="#333333" d="M865.7,448.5c-0.1-1.5-0.4-3-0.9-4.4c-0.2-0.5-0.3-0.9-0.5-1.3c-0.8-1.7-1.7-3.3-3.1-4.6
		c0,0-54.8-55-109.7-110c-27.4-27.5-54.9-55-75.5-75.6c-15.2-15.2-25.3-25.2-32.4-31.5c-0.1-0.2-0.2-0.3-0.3-0.5c0,0,0,0,0-0.1
		l-0.1,0.1c-9.9-8.7-13.9-9.6-18.4-6.9H207.6c-27.3,0-49.6,22.3-49.6,49.6v809c0,13.9,5.4,26.9,15.2,36.7
		c9.7,9.6,23.1,15.2,36.7,15.2h210.4c8.8,0,16-7.2,16-16s-7.2-16-16-16H210c-5.2,0-10.4-2.1-14.1-5.8c-3.7-3.7-5.8-8.9-5.8-14.1
		v-809c0-9.7,7.9-17.6,17.6-17.6h407.4c0.6,36.5-0.1,137.7-0.8,203.5c0,4.3,1.6,8.4,4.6,11.4s7.1,4.7,11.4,4.7h203.6v609.6
		c0,4.6-1.8,9-5.1,12.2c-3.3,3.3-7.6,5.1-12.2,5.1h-7.3c-8.8,0-16,7.2-16,16s7.2,16,16,16h7.3c13.2,0,25.6-5.1,34.9-14.5
		c9.2-9.2,14.4-21.9,14.4-34.9V449.3C865.9,449,865.7,448.8,865.7,448.5z M646.5,433.3c0.9-84.2,1.1-134.3,0.9-164.4
		c37.4,37.3,106.1,106.2,164.1,164.4H646.5z"/>
	<path fill="#333333" d="M742.9,1003.9c-0.6-2-1.6-3.8-2.8-5.4c23.1-27.7,37.1-63.4,37.1-102.4c0-88.4-71.6-160-160-160
		s-160,71.6-160,160c0,41.1,15.7,78.5,41.2,106.9l-54,185.1c-1.8,6,0.2,12.6,5,16.7s11.5,4.9,17.2,2.3l54.4-25.9l34.2,49.6
		c3,4.4,8,6.9,13.2,6.9c0.9,0,1.8-0.1,2.7-0.2c6.2-1.1,11.1-5.6,12.7-11.6l36.7-137l36.7,137c1.6,6,6.6,10.5,12.7,11.6
		c0.9,0.2,1.8,0.2,2.8,0.2c5.2,0,10.1-2.5,13.1-6.9l34.3-49.3l54.4,25.6c5.7,2.7,12.4,1.8,17.2-2.3c4.8-4.1,6.7-10.6,5-16.6
		L742.9,1003.9z M617.1,766.6c71.4,0,129.5,58.1,129.5,129.5s-58.1,129.5-129.5,129.5s-129.5-58.1-129.5-129.5
		C487.6,824.7,545.7,766.6,617.1,766.6z M561.8,1184.1l-22.3-32.3c-4.5-6.5-13-8.8-20-5.4l-34.5,16.4l39.7-136.2
		c20.8,14.8,45.3,24.6,71.8,28L561.8,1184.1z M721.5,1146.7c-7.1-3.3-15.5-1-20,5.4l-22.3,32.1l-35-130.6
		c26.4-4.5,50.5-15.4,70.8-31.1l41,140.5L721.5,1146.7z"/>
	<path fill="#333333" d="M617.1,976.1c44.2,0,80-35.8,80-80s-35.8-80-80-80s-80,35.8-80,80S573,976.1,617.1,976.1z M617.1,848.1
		c26.5,0,48,21.5,48,48s-21.5,48-48,48s-48-21.5-48-48S590.7,848.1,617.1,848.1z"/>
</g>
</svg>
