<?xml version="1.0" encoding="utf-8"?>
<!-- Generator: Adobe Illustrator 18.1.1, SVG Export Plug-In . SVG Version: 6.00 Build 0)  -->
<svg version="1.1" id="Capa_1" xmlns="http://www.w3.org/2000/svg" xmlns:xlink="http://www.w3.org/1999/xlink" x="0px" y="0px"
	 viewBox="0 0 1024 1450" enable-background="new 0 0 1024 1450" xml:space="preserve">
<g>
	<path fill="#333333" d="M224.3,929.1c56.8,0,103-45.9,103-102.3c0-56.4-46.2-102.3-103-102.3s-103,45.9-103,102.3
		C121.3,883.3,167.5,929.1,224.3,929.1z M224.3,768.2c32.8,0,59.4,26.3,59.4,58.7s-26.6,58.7-59.4,58.7s-59.4-26.3-59.4-58.7
		C164.9,794.5,191.5,768.2,224.3,768.2z"/>
	<path fill="#333333" d="M696.7,826.9c0,56.4,46.2,102.3,103,102.3s103-45.9,103-102.3c0-56.4-46.2-102.3-103-102.3
		C742.9,724.6,696.7,770.5,696.7,826.9z M799.7,768.2c32.8,0,59.4,26.3,59.4,58.7s-26.6,58.7-59.4,58.7c-32.8,0-59.4-26.3-59.4-58.7
		C740.2,794.5,766.9,768.2,799.7,768.2z"/>
	<path fill="#333333" d="M507.7,417.6c56.8,0,103-45.9,103-102.3S564.5,213,507.7,213s-103,45.9-103,102.3
		C404.8,371.7,451,417.6,507.7,417.6z M507.7,256.6c32.8,0,59.4,26.3,59.4,58.7S540.5,374,507.7,374s-59.4-26.3-59.4-58.7
		C448.3,282.9,475,256.6,507.7,256.6z"/>
	<path fill="#333333" d="M906,983.8c-63.3-37.7-147.6-34.8-212.7,0c-12.1,6.5-31,19.3-50.3,38.4L529.5,866.1V724.5
		c63.9-2.1,126.8-13.6,187.5-34.4c8.8-3,14.7-11.3,14.7-20.6c0,0,0-2.1,0-2.2c0-42.6-14.7-134.4-117.7-195.7
		c-63.3-37.7-147.6-34.8-212.7,0c-33,17.7-117.7,82.7-117.7,195.7l0.1,2.2c0,9.3,5.9,17.6,14.7,20.6
		c60.7,20.7,123.6,32.2,187.5,34.4v141.6l-110.1,151.3c-12.8-11.8-27.7-23.1-45.3-33.5c-63.3-37.7-147.6-34.8-212.7,0
		c-33,17.7-117.7,82.7-117.7,195.7l0.1,2.2c0,9.3,5.9,17.6,14.7,20.6c67.5,23.1,137.9,34.7,209.2,34.7s141.7-11.7,209.3-34.7
		c8.8-3,14.7-11.3,14.7-20.6c0,0,0-2.1,0-2.2c0-28.8-6.7-79.9-42.7-129l102.1-140.3l106.6,146.4c-21.7,31.4-38.7,72.3-38.7,122.9
		l0.1,2.2c0,9.3,5.9,17.6,14.7,20.6c67.5,23.1,137.9,34.7,209.2,34.7s141.7-11.7,209.3-34.7c8.8-3,14.7-11.3,14.7-20.6
		c0,0,0-2.1,0-2.2C1023.7,1136.8,1009,1045,906,983.8z M422,510.1c52.4-27.9,119.5-28.7,171.5,0c71.9,39.6,92,114.4,94.2,143.8
		c-116.7,36.4-243.3,36.4-360,0C327.8,585.1,386.6,528.9,422,510.1z M44.3,1166c0-68.8,58.9-125,94.2-143.8
		c52.4-27.9,119.5-28.7,171.5,0c71.9,39.6,92,114.4,94.2,143.8C287.6,1202.4,161,1202.4,44.3,1166z M619.7,1166
		c0-68.8,58.9-125,94.2-143.8c52.4-27.9,119.5-28.7,171.5,0c71.9,39.6,92,114.4,94.2,143.8C863,1202.4,736.4,1202.4,619.7,1166z"/>
</g>
</svg>
