<?xml version="1.0" encoding="utf-8"?>
<!-- Generator: Adobe Illustrator 18.1.1, SVG Export Plug-In . SVG Version: 6.00 Build 0)  -->
<svg version="1.1" id="Capa_1" xmlns="http://www.w3.org/2000/svg" xmlns:xlink="http://www.w3.org/1999/xlink" x="0px" y="0px"
	 viewBox="0 0 1024 1450" enable-background="new 0 0 1024 1450" xml:space="preserve">
<g>
	<path fill="#333333" d="M1007.7,646c1.8-4.3,1.8-9.2,0-13.5c-0.9-2.2-2.2-4.1-3.8-5.8L792.2,415.2c-6.9-6.9-18-6.9-24.9,0
		s-6.9,18,0,24.9l181.5,181.5H673.9v-388c0-9.8-7.9-17.6-17.6-17.6H56.7c-0.6,0-1.1,0.3-1.6,0.3c-1,0.1-1.9,0.3-2.8,0.6
		c-1.7,0.4-3.1,1-4.6,1.9c-0.5,0.3-1,0.3-1.4,0.6c-0.5,0.4-1,0.9-1.5,1.4c-0.3,0.3-0.6,0.5-0.9,0.8c-1.3,1.4-2.4,3.1-3.2,4.8
		c-0.2,0.4-0.2,0.7-0.4,1.1c-0.7,2-1.2,4-1.2,6.2V1045c0,2.2,0.5,4.3,1.3,6.3c0.2,0.7,0.6,1.2,0.9,1.8c0.7,1.3,1.4,2.4,2.3,3.5
		c0.5,0.6,1,1.1,1.6,1.6c1,0.9,2.2,1.6,3.4,2.3c0.7,0.4,1.3,0.7,2,1c0.3,0.1,0.5,0.3,0.8,0.4l388,123.5c1.7,0.5,3.5,0.8,5.3,0.8
		c3.7,0,7.4-1.2,10.4-3.4c4.6-3.3,7.2-8.6,7.2-14.3v-105.8h194c9.8,0,17.6-7.9,17.6-17.6v-388h274.9L767.3,838.4
		c-6.9,6.9-6.9,18,0,24.9c3.4,3.4,8,5.2,12.5,5.2s9-1.7,12.5-5.2l211.6-211.6C1005.5,650.1,1006.8,648.2,1007.7,646z M427,1144.3
		L74.3,1032V257.7L427,370V1144.3z M638.7,1027.3H462.3V357.1c0-7.7-5-14.5-12.3-16.8l-279.7-89h468.4L638.7,1027.3L638.7,1027.3z"
		/>
	<path fill="#333333" d="M398.3,764l-88.2-35.3c-9-3.6-19.3,0.8-22.9,9.8s0.8,19.3,9.8,22.9l88.2,35.3c2.1,0.9,4.4,1.3,6.5,1.3
		c7,0,13.6-4.2,16.4-11.1C411.7,777.9,407.3,767.6,398.3,764z"/>
</g>
</svg>
