<?xml version="1.0" encoding="utf-8"?>
<!-- Generator: Adobe Illustrator 18.1.1, SVG Export Plug-In . SVG Version: 6.00 Build 0)  -->
<svg version="1.1" id="Capa_1" xmlns="http://www.w3.org/2000/svg" xmlns:xlink="http://www.w3.org/1999/xlink" x="0px" y="0px"
	 viewBox="0 0 1024 1450" enable-background="new 0 0 1024 1450" xml:space="preserve">
<g>
	<path fill="#333333" d="M746,696.7c83,0,150.6-67.6,150.6-150.6S829,395.6,746,395.6s-150.6,67.6-150.6,150.6S663,696.7,746,696.7z
		 M746,441.9c57.5,0,104.3,46.8,104.3,104.3S803.5,650.4,746,650.4s-104.3-46.8-104.3-104.3C641.7,488.7,688.5,441.9,746,441.9z"/>
	<path fill="#333333" d="M746,752.3c-79.7,0-155.6,34.3-208.4,94c-8.5,9.6-7.6,24.2,2,32.7s24.2,7.6,32.7-2
		c38.8-44,92.7-71.4,150.5-77.2v22.9c0,12.8,10.4,23.2,23.2,23.2s23.2-10.4,23.2-23.2v-22.9c116.9,11.7,208.5,110.6,208.5,230.5
		c0,12.8,10.4,23.2,23.2,23.2s23.2-10.4,23.2-23.2C1024,877.1,899.3,752.3,746,752.3z"/>
	<path fill="#333333" d="M278,696.7c83,0,150.6-67.6,150.6-150.6S361,395.6,278,395.6s-150.6,67.6-150.6,150.6S195,696.7,278,696.7z
		 M278,441.9c57.5,0,104.3,46.8,104.3,104.3S335.5,650.4,278,650.4s-104.3-46.8-104.3-104.3C173.8,488.7,220.5,441.9,278,441.9z"/>
	<path fill="#333333" d="M278,752.3c-153.3,0-278,124.7-278,278c0,12.8,10.4,23.2,23.2,23.2s23.2-10.4,23.2-23.2
		c0-119.9,91.6-218.9,208.5-230.5v22.9c0,12.8,10.4,23.2,23.2,23.2s23.2-10.4,23.2-23.2v-22.9c116.9,11.7,208.5,110.6,208.5,230.5
		c0,12.8,10.4,23.2,23.2,23.2s23.2-10.4,23.2-23.2C556,877.1,431.3,752.3,278,752.3z"/>
	<path fill="#333333" d="M278,869.1c-12.8,0-23.2,10.4-23.2,23.2v139c0,12.8,10.4,23.2,23.2,23.2s23.2-10.4,23.2-23.2v-139
		C301.2,879.5,290.8,869.1,278,869.1z"/>
	<path fill="#333333" d="M746,869.1c-12.8,0-23.2,10.4-23.2,23.2v139c0,12.8,10.4,23.2,23.2,23.2s23.2-10.4,23.2-23.2v-139
		C769.2,879.5,758.8,869.1,746,869.1z"/>
</g>
</svg>
