<?xml version="1.0" encoding="utf-8"?>
<!-- Generator: Adobe Illustrator 18.1.1, SVG Export Plug-In . SVG Version: 6.00 Build 0)  -->
<svg version="1.1" id="Layer_1" xmlns="http://www.w3.org/2000/svg" xmlns:xlink="http://www.w3.org/1999/xlink" x="0px" y="0px"
	 viewBox="0 0 1024 1450" enable-background="new 0 0 1024 1450" xml:space="preserve">
<g>
	<path fill="#333333" d="M1007.4,344.1H16.6c-9.2,0-16.6,7.4-16.6,16.6v728.5c0,9.2,7.4,16.6,16.6,16.6h990.8
		c9.2,0,16.6-7.4,16.6-16.6V360.7C1024,351.6,1016.6,344.1,1007.4,344.1z M990.8,377.3v122H33.2v-122H990.8z M33.2,1072.7V532.5
		h957.7v540.2H33.2L33.2,1072.7z"/>
	<path fill="#333333" d="M326,588.8H131.4c-9.2,0-16.6,7.4-16.6,16.6c0,9.2,7.4,16.6,16.6,16.6H326c9.2,0,16.6-7.4,16.6-16.6
		S335.2,588.8,326,588.8z"/>
	<path fill="#333333" d="M326,667.7H131.4c-9.2,0-16.6,7.4-16.6,16.6s7.4,16.6,16.6,16.6H326c9.2,0,16.6-7.4,16.6-16.6
		S335.2,667.7,326,667.7z"/>
	<path fill="#333333" d="M326,746.6H131.4c-9.2,0-16.6,7.4-16.6,16.6s7.4,16.6,16.6,16.6H326c9.2,0,16.6-7.4,16.6-16.6
		S335.2,746.6,326,746.6L326,746.6z"/>
	<path fill="#333333" d="M326,825.4H131.4c-9.2,0-16.6,7.4-16.6,16.6s7.4,16.6,16.6,16.6H326c9.2,0,16.6-7.4,16.6-16.6
		S335.2,825.4,326,825.4z"/>
	<path fill="#333333" d="M326,904.3H131.4c-9.2,0-16.6,7.4-16.6,16.6s7.4,16.6,16.6,16.6H326c9.2,0,16.6-7.4,16.6-16.6
		S335.2,904.3,326,904.3z"/>
	<path fill="#333333" d="M326,983.2H131.4c-9.2,0-16.6,7.4-16.6,16.6s7.4,16.6,16.6,16.6H326c9.2,0,16.6-7.4,16.6-16.6
		S335.2,983.2,326,983.2z"/>
	<path fill="#333333" d="M609.3,825.4H414.7c-9.2,0-16.6,7.4-16.6,16.6s7.4,16.6,16.6,16.6h194.6c9.2,0,16.6-7.4,16.6-16.6
		S618.5,825.4,609.3,825.4z"/>
	<path fill="#333333" d="M609.3,904.3H414.7c-9.2,0-16.6,7.4-16.6,16.6s7.4,16.6,16.6,16.6h194.6c9.2,0,16.6-7.4,16.6-16.6
		S618.5,904.3,609.3,904.3z"/>
	<path fill="#333333" d="M609.3,983.2H414.7c-9.2,0-16.6,7.4-16.6,16.6s7.4,16.6,16.6,16.6h194.6c9.2,0,16.6-7.4,16.6-16.6
		S618.5,983.2,609.3,983.2z"/>
	<path fill="#333333" d="M609.3,588.8H414.7c-9.2,0-16.6,7.4-16.6,16.6v157.8c0,9.2,7.4,16.6,16.6,16.6h194.6
		c9.2,0,16.6-7.4,16.6-16.6V605.4C625.9,596.2,618.5,588.8,609.3,588.8L609.3,588.8z M592.7,746.6H431.3V621.9h161.4L592.7,746.6
		L592.7,746.6z"/>
	<path fill="#333333" d="M892.6,746.6H698c-9.2,0-16.6,7.4-16.6,16.6s7.4,16.6,16.6,16.6h194.6c9.2,0,16.6-7.4,16.6-16.6
		S901.8,746.6,892.6,746.6L892.6,746.6z"/>
	<path fill="#333333" d="M892.6,667.7H698c-9.2,0-16.6,7.4-16.6,16.6s7.4,16.6,16.6,16.6h194.6c9.2,0,16.6-7.4,16.6-16.6
		S901.8,667.7,892.6,667.7z"/>
	<path fill="#333333" d="M892.6,588.8H698c-9.2,0-16.6,7.4-16.6,16.6c0,9.2,7.4,16.6,16.6,16.6h194.6c9.2,0,16.6-7.4,16.6-16.6
		C909.2,596.2,901.8,588.8,892.6,588.8z"/>
	<path fill="#333333" d="M892.6,825.4H698c-9.2,0-16.6,7.4-16.6,16.6v157.8c0,9.2,7.4,16.6,16.6,16.6h194.6
		c9.2,0,16.6-7.4,16.6-16.6V842C909.2,832.9,901.8,825.4,892.6,825.4z M876,983.2H714.6V858.6H876V983.2z"/>
	<path fill="#333333" d="M234.8,485.9h705.5c9.2,0,16.6-7.4,16.6-16.6v-61.9c0-9.2-7.4-16.6-16.6-16.6H234.8
		c-9.2,0-16.6,7.4-16.6,16.6v61.9C218.2,478.4,225.6,485.9,234.8,485.9L234.8,485.9z M251.4,423.9h672.3v28.8H251.4V423.9
		L251.4,423.9z"/>
	<path fill="#333333" d="M71.6,454.9c4.4,0,8.6-1.8,11.7-4.9s4.8-7.4,4.8-11.7c0-4.4-1.8-8.6-4.8-11.7c-3.1-3.1-7.4-4.8-11.7-4.8
		c-4.4,0-8.6,1.8-11.7,4.8c-3.1,3.1-4.9,7.4-4.9,11.7c0,4.4,1.8,8.6,4.9,11.7C62.9,453.1,67.2,454.9,71.6,454.9z"/>
	<path fill="#333333" d="M125.2,454.9c4.4,0,8.6-1.8,11.7-4.9c3.1-3.1,4.9-7.4,4.9-11.7c0-4.4-1.8-8.6-4.9-11.7
		c-3.1-3.1-7.4-4.8-11.7-4.8c-4.4,0-8.6,1.8-11.7,4.8c-3.1,3.1-4.9,7.4-4.9,11.7c0,4.4,1.8,8.6,4.9,11.7
		C116.5,453.1,120.8,454.9,125.2,454.9z"/>
	<path fill="#333333" d="M178.8,454.9c4.4,0,8.6-1.8,11.7-4.9c3.1-3.1,4.9-7.4,4.9-11.7c0-4.4-1.8-8.6-4.9-11.7
		c-3.1-3.1-7.3-4.8-11.7-4.8s-8.6,1.8-11.7,4.8c-3.1,3.1-4.8,7.4-4.8,11.7c0,4.4,1.8,8.6,4.8,11.7S174.4,454.9,178.8,454.9z"/>
</g>
</svg>
