<?xml version="1.0" encoding="utf-8"?>
<!-- Generator: Adobe Illustrator 18.1.1, SVG Export Plug-In . SVG Version: 6.00 Build 0)  -->
<svg version="1.1" id="Capa_1" xmlns="http://www.w3.org/2000/svg" xmlns:xlink="http://www.w3.org/1999/xlink" x="0px" y="0px"
	 viewBox="0 0 1024 1450" enable-background="new 0 0 1024 1450" xml:space="preserve">
<g>
	<path fill="#333333" d="M768,639.7H341.3c-9.4,0-17.1,7.6-17.1,17.1s7.6,17.1,17.1,17.1H768c9.4,0,17.1-7.6,17.1-17.1
		S777.4,639.7,768,639.7z"/>
	<path fill="#333333" d="M341.3,537.3H512c9.4,0,17.1-7.6,17.1-17.1s-7.6-17.1-17.1-17.1H341.3c-9.4,0-17.1,7.6-17.1,17.1
		S331.9,537.3,341.3,537.3z"/>
	<path fill="#333333" d="M768,776.2H341.3c-9.4,0-17.1,7.6-17.1,17.1c0,9.4,7.6,17.1,17.1,17.1H768c9.4,0,17.1-7.6,17.1-17.1
		S777.4,776.2,768,776.2z"/>
	<path fill="#333333" d="M768,912.7H341.3c-9.4,0-17.1,7.6-17.1,17.1c0,9.4,7.6,17.1,17.1,17.1H768c9.4,0,17.1-7.6,17.1-17.1
		C785.1,920.4,777.4,912.7,768,912.7z"/>
	<path fill="#333333" d="M768,1049.3H341.3c-9.4,0-17.1,7.6-17.1,17.1s7.6,17.1,17.1,17.1H768c9.4,0,17.1-7.6,17.1-17.1
		S777.4,1049.3,768,1049.3z"/>
	<path fill="#333333" d="M836.3,461.9V213H102.4v938.7h85.3v85.3h733.9V547.3L836.3,461.9z M682.7,356.6l153.6,153.6l27.1,27.1
		H682.7V356.6z M136.5,1117.5V247.1h665.6v180.7L672.7,298.3h-485v819.2H136.5z M221.9,1202.9v-51.2V332.5h426.7v238.9h238.9v631.5
		H221.9z"/>
</g>
</svg>
