<?xml version="1.0" encoding="utf-8"?>
<!-- Generator: Adobe Illustrator 18.1.1, SVG Export Plug-In . SVG Version: 6.00 Build 0)  -->
<svg version="1.1" id="Capa_1" xmlns="http://www.w3.org/2000/svg" xmlns:xlink="http://www.w3.org/1999/xlink" x="0px" y="0px"
	 viewBox="0 0 1024 1450" enable-background="new 0 0 1024 1450" xml:space="preserve">
<g>
	<path fill="#333333" d="M935.8,278.3c-87-87-228.5-87-315.5,0l-171,170.9c-7.3,7.3-7.3,19,0,26.3s19,7.3,26.3,0l170.9-170.9
		c35-35,81.6-54.2,131.5-54.2s96.5,19.3,131.5,54.2s54.2,81.6,54.2,131.5s-19.3,96.5-54.2,131.5L686,791.1
		c-72.5,72.5-190.5,72.5-263,0c-7.3-7.3-19-7.3-26.3,0s-7.3,19,0,26.3c43.5,43.5,100.6,65.2,157.8,65.2s114.3-21.8,157.8-65.2
		l223.5-223.5c42-42,65.1-98,65.1-157.8C1000.9,376.3,977.8,320.3,935.8,278.3z"/>
	<path fill="#333333" d="M515.1,961.9l-144.6,144.6c-35,35-81.6,54.2-131.5,54.2s-96.5-19.3-131.5-54.2C35,1034,35,916,107.5,843.5
		l210.4-210.4c72.5-72.5,190.5-72.4,263,0c7.3,7.3,19,7.3,26.3,0s7.3-19,0-26.3c-87-87-228.5-87-315.5,0L81.2,817.3
		c-42,42-65.1,98-65.1,157.8c0,59.8,23.1,115.8,65.1,157.8s98,65.1,157.8,65.1s115.8-23.1,157.8-65.1l144.6-144.6
		c7.3-7.3,7.3-19,0-26.3C534.1,954.7,522.3,954.7,515.1,961.9z"/>
</g>
</svg>
