<?xml version="1.0" encoding="utf-8"?>
<!-- Generator: Adobe Illustrator 18.1.1, SVG Export Plug-In . SVG Version: 6.00 Build 0)  -->
<svg version="1.1" id="Layer_1" xmlns="http://www.w3.org/2000/svg" xmlns:xlink="http://www.w3.org/1999/xlink" x="0px" y="0px"
	 viewBox="0 0 1024 1450" enable-background="new 0 0 1024 1450" xml:space="preserve">
<path fill="none" d="M-7,207h1024v1024H-7V207z"/>
<path fill="#333333" d="M846.3,292.4h-512c-46.9,0-85.3,38.4-85.3,85.3v512c0,46.9,38.4,85.3,85.3,85.3h512
	c46.9,0,85.3-38.4,85.3-85.3v-512C931.6,330.8,893.2,292.4,846.3,292.4z M377,612.4h42.7v-42.7H377V612.4z M163.6,463H78.3v597.3
	c0,46.9,38.4,85.3,85.3,85.3H761v-85.3H163.6V463z M590.3,697.7H633v-128h-42.7V697.7z"/>
<text transform="matrix(1 0 0 1 288.0683 732.2762)" fill="#FFFFFF" stroke="#FFFFFF" stroke-miterlimit="10" font-family="'Signika-Bold'" font-size="311.4027">DOC</text>
</svg>
