<?xml version="1.0" encoding="utf-8"?>
<!-- Generator: Adobe Illustrator 18.1.1, SVG Export Plug-In . SVG Version: 6.00 Build 0)  -->
<svg version="1.1" id="Layer_1" xmlns="http://www.w3.org/2000/svg" xmlns:xlink="http://www.w3.org/1999/xlink" x="0px" y="0px"
	 viewBox="0 0 1024 1450" enable-background="new 0 0 1024 1450" xml:space="preserve">
<path fill="none" d="M-19,238.5h1024v1024H-19V238.5z"/>
<path fill="#333333" d="M834.3,323.9h-512c-46.9,0-85.3,38.4-85.3,85.3v512c0,46.9,38.4,85.3,85.3,85.3h512
	c46.9,0,85.3-38.4,85.3-85.3v-512C919.6,362.3,881.2,323.9,834.3,323.9z M365,643.9h42.7v-42.7H365V643.9z M151.6,494.5H66.3v597.3
	c0,46.9,38.4,85.3,85.3,85.3H749v-85.3H151.6V494.5z M578.3,729.2H621v-128h-42.7V729.2z"/>
<text transform="matrix(1 0 0 1 318.7147 763.7747)" fill="#FFFFFF" font-family="'Signika-Bold'" font-size="311.4027">JPG</text>
</svg>
