<?xml version="1.0" encoding="utf-8"?>
<!-- Generator: Adobe Illustrator 18.1.1, SVG Export Plug-In . SVG Version: 6.00 Build 0)  -->
<svg version="1.1" id="Layer_1" xmlns="http://www.w3.org/2000/svg" xmlns:xlink="http://www.w3.org/1999/xlink" x="0px" y="0px"
	 viewBox="0 0 1024 1450" enable-background="new 0 0 1024 1450" xml:space="preserve">
<path fill="none" d="M949.9,186h1024v1024h-1024V186z"/>
<path fill="#333333" d="M834.3,209.9h-512c-46.9,0-85.3,38.4-85.3,85.3v512c0,46.9,38.4,85.3,85.3,85.3h512
	c46.9,0,85.3-38.4,85.3-85.3v-512C919.6,248.3,881.2,209.9,834.3,209.9z M471.6,529.9c0,34.1-29.9,64-64,64H365v85.3h-64v-256h106.7
	c34.1,0,64,29.9,64,64v42.7H471.6z M685,615.2c0,34.1-29.9,64-64,64H514.3v-256H621c34.1,0,64,29.9,64,64V615.2z M855.6,487.2h-64
	v42.7h64v64h-64v85.3h-64v-256h128V487.2z M365,529.9h42.7v-42.7H365V529.9z M151.6,380.5H66.3v597.3c0,46.9,38.4,85.3,85.3,85.3
	H749v-85.3H151.6V380.5z M578.3,615.2H621v-128h-42.7V615.2z"/>
</svg>
