<?xml version="1.0" encoding="utf-8"?>
<!-- Generator: Adobe Illustrator 18.1.1, SVG Export Plug-In . SVG Version: 6.00 Build 0)  -->
<svg version="1.1" id="Layer_1" xmlns="http://www.w3.org/2000/svg" xmlns:xlink="http://www.w3.org/1999/xlink" x="0px" y="0px"
	 viewBox="0 0 1024 1450" enable-background="new 0 0 1024 1450" xml:space="preserve">
<path fill="none" d="M-21,151h1024v1024H-21V151z"/>
<path fill="#333333" d="M832.3,236.3h-512c-46.9,0-85.3,38.4-85.3,85.3v512c0,46.9,38.4,85.3,85.3,85.3h512
	c46.9,0,85.3-38.4,85.3-85.3v-512C917.7,274.7,879.3,236.3,832.3,236.3z M363,556.3h42.7v-42.7H363V556.3z M149.7,407H64.3v597.3
	c0,46.9,38.4,85.3,85.3,85.3H747v-85.3H149.7V407z M576.3,641.7H619v-128h-42.7V641.7z"/>
<text transform="matrix(1 0 0 1 274.0929 676.2402)" fill="#FFFFFF" font-family="'Signika-Bold'" font-size="311.4027">PNG</text>
</svg>
