<?xml version="1.0" encoding="utf-8"?>
<!-- Generator: Adobe Illustrator 18.1.1, SVG Export Plug-In . SVG Version: 6.00 Build 0)  -->
<svg version="1.1" id="Layer_1" xmlns="http://www.w3.org/2000/svg" xmlns:xlink="http://www.w3.org/1999/xlink" x="0px" y="0px"
	 viewBox="0 0 1024 1450" enable-background="new 0 0 1024 1450" xml:space="preserve">
<path fill="none" d="M-37,165H987v1024H-37V165z"/>
<path fill="#333333" d="M816.3,250.4h-512c-46.9,0-85.3,38.4-85.3,85.3v512c0,46.9,38.4,85.3,85.3,85.3h512
	c46.9,0,85.3-38.4,85.3-85.3v-512C901.6,288.8,863.2,250.4,816.3,250.4z M347,570.4h42.7v-42.7H347V570.4z M133.6,421H48.3v597.3
	c0,46.9,38.4,85.3,85.3,85.3H731v-85.3H133.6V421z M560.3,655.7H603v-128h-42.7V655.7z"/>
<text transform="matrix(1 0 0 1 300.7156 690.2783)" fill="#FFFFFF" font-family="'Signika-Bold'" font-size="311.4027">XLS</text>
</svg>
