<?xml version="1.0" encoding="utf-8"?>
<!-- Generator: Adobe Illustrator 18.1.1, SVG Export Plug-In . SVG Version: 6.00 Build 0)  -->
<svg version="1.1" id="Capa_1" xmlns="http://www.w3.org/2000/svg" xmlns:xlink="http://www.w3.org/1999/xlink" x="0px" y="0px"
	 viewBox="0 0 1024 1450" enable-background="new 0 0 1024 1450" xml:space="preserve">
<path image-rendering="auto" color-rendering="auto" shape-rendering="auto" color-interpolation="sRGB" fill="#333333" d="M435,213
	c-5.7,0.2-11,3.1-14.2,8l-50.5,75.7H198.6c-9.6,0-17.4,7.8-17.4,17.4v174.1c0,9.6,7.8,17.4,17.4,17.4h174.1
	c9.6,0,17.4-7.8,17.4-17.4V350.8L355.3,403v67.7H216V331.5h131.2l-49,73.5l-21.4-42.8c-4.2-8.7-14.6-12.3-23.3-8.1
	c-8.7,4.2-12.3,14.6-8.1,23.3c0.1,0.1,0.1,0.3,0.2,0.4l34.8,69.7c4.3,8.6,14.8,12.1,23.4,7.8c2.7-1.4,5-3.4,6.7-5.9l139.3-209
	c5.5-7.9,3.4-18.8-4.5-24.2C442.4,214,438.7,212.9,435,213L435,213z M512,366.3c-9.6,0-17.4,7.8-17.4,17.4v34.8
	c0,9.6,7.8,17.4,17.4,17.4h313.4c9.6,0,17.4-7.8,17.4-17.4v-34.8c0-9.6-7.8-17.4-17.4-17.4H512z M198.6,540.6
	c-9.6,0-17.4,7.8-17.4,17.4v174.1c0,9.6,7.8,17.4,17.4,17.4h174.1c9.6,0,17.4-7.8,17.4-17.4V558c0-9.6-7.8-17.4-17.4-17.4H198.6z
	 M216,575.4h139.3v139.3H216V575.4z M512,610.1c-9.6,0-17.4,7.8-17.4,17.4v34.8c0,9.6,7.8,17.4,17.4,17.4h313.4
	c9.6,0,17.4-7.8,17.4-17.4v-34.8c0-9.6-7.8-17.4-17.4-17.4H512L512,610.1z M198.6,784.2c-9.6,0-17.4,7.8-17.4,17.4v174.1
	c0,9.6,7.8,17.4,17.4,17.4h174.1c9.6,0,17.4-7.8,17.4-17.4v-174c0-9.6-7.8-17.4-17.4-17.4L198.6,784.2L198.6,784.2z M216,819.1
	h139.3v139.3H216V819.1z M512,854c-9.6,0-17.4,7.8-17.4,17.4v34.8c0,9.6,7.8,17.4,17.4,17.4h313.4c9.6,0,17.4-7.8,17.4-17.4v-34.8
	c0-9.6-7.8-17.4-17.4-17.4H512z M198.6,1028c-9.6,0-17.4,7.8-17.4,17.4v174.1c0,9.6,7.8,17.4,17.4,17.4h174.1
	c9.6,0,17.4-7.8,17.4-17.4v-174.1c0-9.6-7.8-17.4-17.4-17.4H198.6L198.6,1028z M216,1062.9h139.3v139.3H216V1062.9z M512,1097.7
	c-9.6,0-17.4,7.8-17.4,17.4v34.8c0,9.6,7.8,17.4,17.4,17.4h313.4c9.6,0,17.4-7.8,17.4-17.4v-34.8c0-9.6-7.8-17.4-17.4-17.4H512
	L512,1097.7z"/>
</svg>
