<?xml version="1.0" encoding="utf-8"?>
<!-- Generator: Adobe Illustrator 18.1.1, SVG Export Plug-In . SVG Version: 6.00 Build 0)  -->
<svg version="1.1" id="Capa_1" xmlns="http://www.w3.org/2000/svg" xmlns:xlink="http://www.w3.org/1999/xlink" x="0px" y="0px"
	 viewBox="0 0 1024 1450" enable-background="new 0 0 1024 1450" xml:space="preserve">
<g>
	<path fill="#333333" d="M626.7,588.5H200c-9.4,0-17.1,7.6-17.1,17.1c0,9.4,7.6,17.1,17.1,17.1h426.7c9.4,0,17.1-7.6,17.1-17.1
		C643.7,596.1,636.1,588.5,626.7,588.5z"/>
	<path fill="#333333" d="M200,486.1h170.7c9.4,0,17.1-7.6,17.1-17.1c0-9.4-7.6-17.1-17.1-17.1H200c-9.4,0-17.1,7.6-17.1,17.1
		C182.9,478.4,190.6,486.1,200,486.1z"/>
	<path fill="#333333" d="M626.7,725H200c-9.4,0-17.1,7.6-17.1,17.1c0,9.4,7.6,17.1,17.1,17.1h426.7c9.4,0,17.1-7.6,17.1-17.1
		C643.7,732.6,636.1,725,626.7,725z"/>
	<path fill="#333333" d="M490.1,861.5H200c-9.4,0-17.1,7.6-17.1,17.1s7.6,17.1,17.1,17.1h290.1c9.4,0,17.1-7.6,17.1-17.1
		S499.6,861.5,490.1,861.5z"/>
	<path fill="#333333" d="M438.9,1032.2c9.4,0,17.1-7.6,17.1-17.1c0-9.4-7.6-17.1-17.1-17.1H200c-9.4,0-17.1,7.6-17.1,17.1
		c0,9.4,7.6,17.1,17.1,17.1H438.9z"/>
	<path fill="#333333" d="M46.4,247.1h494.9V486h238.9v307.2h34.1V461.9L565.5,213H12.3v1024h494.9v-34.1H46.4V247.1z M575.5,271.3
		L756.2,452H575.5V271.3z"/>
	<path fill="#333333" d="M996.8,847.2l-48.6-48.6c-19.3-19.3-52.8-19.3-72.1,0l-262.7,262.7L577.3,1194l-8.9,8.9
		c-6.6,6.6-6.6,17.3-0.1,24l-0.1,0.3l0.3-0.1c3.3,3.2,7.6,4.9,11.9,4.9c4.4,0,8.7-1.7,12.1-5l8.9-8.9l132.8-36.2l262.7-262.7
		c9.6-9.6,14.9-22.4,14.9-36C1011.7,869.6,1006.4,856.8,996.8,847.2z M652.9,1070.1l174.8-174.8l72.4,72.4l-174.8,174.8
		L652.9,1070.1z M637.5,1103l55,55l-75.6,20.6L637.5,1103z M972.7,895.1l-48.5,48.5l-72.4-72.4l48.5-48.5c6.3-6.3,17.4-6.4,23.8,0
		l48.6,48.6c3.2,3.2,4.9,7.4,4.9,11.9C977.6,887.7,975.9,892,972.7,895.1z"/>
</g>
</svg>
