<?xml version="1.0" encoding="utf-8"?>
<!-- Generator: Adobe Illustrator 18.1.1, SVG Export Plug-In . SVG Version: 6.00 Build 0)  -->
<svg version="1.1" id="Layer_1" xmlns="http://www.w3.org/2000/svg" xmlns:xlink="http://www.w3.org/1999/xlink" x="0px" y="0px"
	 viewBox="0 0 1024 1450" enable-background="new 0 0 1024 1450" xml:space="preserve">
<path fill="none" d="M-792.5,1487.9h1481v1481h-1481V1487.9z"/>
<g>
	<path fill="#333333" d="M1003,519H805.4c0,6.2,0,18.5,0,18.5c18.5,0,61.8,6.2,74.1,43.2l-185.1,432
		c-6.2-18.5-98.8-215.9-104.9-240.7l92.6-185c18.5-30.8,55.5-49.3,86.3-49.3v-18.5H577.2c0,6.2,0,18.5,0,18.5
		c55.5,0,74.1,12.3,61.8,43.2c-18.5,49.3-67.8,135.8-74.1,154.3c-24.7-55.5-43.2-98.8-74.1-160.4c-12.3-30.8,12.3-37,43.2-37v-18.5
		H318.2c0,12.3,0,12.3,0,18.5c30.8,0,67.8,6.2,86.3,30.8c18.5,43.2,92.6,203.6,111.1,246.9c-24.7,49.3-92.6,172.8-117.3,215.9
		c-30.8-74-154.3-364-191.3-444.2c-18.5-24.7,30.8-43.2,61.8-49.3v-18.5h-247c0,6.2,0,18.5,0,24.7c43.2,0,98.8,67.8,117.3,104.9
		c74.1,166.6,148.1,333.2,222.2,506.1H386c49.3-98.8,104.9-197.4,154.3-296.2L663.7,1155h18.5c80.3-178.9,197.4-462.8,240.7-549.2
		c18.5-37,43.2-61.8,86.3-61.8L1003,519L1003,519z"/>
</g>
</svg>
