<?xml version="1.0" encoding="utf-8"?>
<!-- Generator: Adobe Illustrator 18.1.1, SVG Export Plug-In . SVG Version: 6.00 Build 0)  -->
<svg version="1.1" id="Layer_1" xmlns="http://www.w3.org/2000/svg" xmlns:xlink="http://www.w3.org/1999/xlink" x="0px" y="0px"
	 viewBox="0 0 1024 1450" enable-background="new 0 0 1024 1450" xml:space="preserve">
<g>
	<g>
		<path fill="#333333" d="M243,341.4c-63.4,0-114.6,51.4-114.6,114.6c0,63.4,51.4,114.6,114.6,114.6c63.4,0,114.6-51.4,114.6-114.6
			C357.8,392.6,306.4,341.4,243,341.4z M243,530c-40.8,0-74-33.2-74-74s33.2-74,74-74s74,33.2,74,74S284,530,243,530z"/>
		<path fill="#333333" d="M489,272.6c-20.8-23-50-35.4-81.4-35.4L193,235c-45.8,0-89.6,16.6-121,50c-33.4,31.4-50,75.2-50,121
			l2,214.8c2,29.2,12.6,58.4,35.4,81.4l513,512.8L1002,785.4L489,272.6L489,272.6z M570.4,1156.6L86.6,672.8
			c-14.6-14.6-23-33.4-23-54.2l-2-212.6c0-33.4,14.6-66.8,37.6-91.8c25-25,58.4-39.6,93.8-39.6l212.6,2c20.8,0,39.6,8.4,54.2,23
			l483.8,483.8L570.4,1156.6z"/>
	</g>
</g>
</svg>
