<?xml version="1.0" encoding="utf-8"?>
<!-- Generator: Adobe Illustrator 18.1.1, SVG Export Plug-In . SVG Version: 6.00 Build 0)  -->
<svg version="1.1" id="Capa_1" xmlns="http://www.w3.org/2000/svg" xmlns:xlink="http://www.w3.org/1999/xlink" x="0px" y="0px"
	 viewBox="0 0 1024 1450" enable-background="new 0 0 1024 1450" xml:space="preserve">
<g>
	<path fill="#333333" d="M170.7,647.6h221.9c9.4,0,17.1-7.6,17.1-17.1c0-9.4-7.6-17.1-17.1-17.1H170.7c-9.4,0-17.1,7.6-17.1,17.1
		C153.6,640,161.2,647.6,170.7,647.6z"/>
	<path fill="#333333" d="M614.4,715.9H170.7c-9.4,0-17.1,7.6-17.1,17.1s7.6,17.1,17.1,17.1h443.7c9.4,0,17.1-7.6,17.1-17.1
		S623.8,715.9,614.4,715.9z"/>
	<path fill="#333333" d="M614.4,818.3H170.7c-9.4,0-17.1,7.6-17.1,17.1c0,9.4,7.6,17.1,17.1,17.1h443.7c9.4,0,17.1-7.6,17.1-17.1
		C631.5,825.9,623.8,818.3,614.4,818.3z"/>
	<path fill="#333333" d="M922.8,256.3l-582.7-1.2c-55.8,0-101.2,45.4-101.2,101.2v87.4L101.2,444C45.4,444,0,489.4,0,545.2V906
		c0,55.8,45.4,101.2,101.2,101.2h103.6v170.7c0,7,4.3,13.4,10.9,15.9c2,0.8,4.1,1.1,6.1,1.1c4.7,0,9.3-2,12.6-5.6L400,1007.1
		l283.8-1.2c55.8,0,101.2-45.4,101.2-101.2v-1.9l89.8,98.7c3.3,3.6,7.9,5.6,12.6,5.6c2.1,0,4.1-0.4,6.1-1.1
		c6.6-2.5,10.9-8.9,10.9-15.9V819.5h18.3c55.8,0,101.2-45.4,101.2-101.2V357.5C1024,301.7,978.6,256.3,922.8,256.3z M750.9,904.8
		c0,37-30.1,67.1-67.1,67.1l-291.3,1.2c-4.8,0-9.4,2-12.6,5.6l-141,155.1V990.1c0-9.4-7.6-17.1-17.1-17.1H101.2
		c-37,0-67.1-30.1-67.1-67.1V545.2c0-37,30.1-67.1,67.1-67.1l154.8-0.3l0,0l0,0l427.8-0.9c37,0,67.1,30.1,67.1,67.1v314.7
		L750.9,904.8L750.9,904.8z M989.9,718.3c0,37-30.1,67.1-67.1,67.1h-35.3c-9.4,0-17.1,7.6-17.1,17.1V946l-85.3-93.9V544
		c0-55.8-45.4-101.2-101.2-101.2l-410.8,0.8v-87.4c0-37,30.1-67.1,67-67.1l582.7,1.2l0,0c37,0,67.1,30.1,67.1,67.1L989.9,718.3
		L989.9,718.3z"/>
</g>
</svg>
