<?xml version="1.0" encoding="utf-8"?>
<!-- Generator: Adobe Illustrator 18.1.1, SVG Export Plug-In . SVG Version: 6.00 Build 0)  -->
<svg version="1.1" id="Layer_1" xmlns="http://www.w3.org/2000/svg" xmlns:xlink="http://www.w3.org/1999/xlink" x="0px" y="0px"
	 viewBox="0 0 1024 1450" enable-background="new 0 0 1024 1450" xml:space="preserve">
<g>
	<path fill="#333333" d="M1009,277.1h-32.1H527V228c0-8.3-6.7-15-15-15s-15,6.7-15,15v49.1H47.1H15c-8.3,0-15,6.7-15,15
		s6.7,15,15,15h17v610.2c0,26,21.1,47.1,47.1,47.1h204.4l-22.5,76.7v0.1l-52,176.5c-2.3,8,2.2,16.3,10.2,18.7
		c1.4,0.4,2.8,0.6,4.2,0.6c6.5,0,12.5-4.2,14.4-10.8l48.7-165.6h450.9l48.7,165.6c1.9,6.5,7.9,10.8,14.4,10.8c1.4,0,2.8-0.2,4.2-0.6
		c8-2.3,12.5-10.7,10.2-18.7L763,1041.2v-0.1l-22.5-76.7h204.4c26,0,47.1-21.1,47.1-47.1V307.2h17c8.3,0,15-6.7,15-15
		S1017.3,277.1,1009,277.1L1009,277.1z M728.6,1030.6H295.4l19.4-66.1h394.3L728.6,1030.6L728.6,1030.6z M961.9,917.4
		c0,9.4-7.6,17-17,17H720.7c0,0,0,0-0.1,0H303.4h-0.1H79.2c-9.4,0-17-7.6-17-17V307.2H962L961.9,917.4L961.9,917.4z"/>
	<path fill="#333333" d="M350.5,624.8L164.7,810.6c-5.9,5.9-5.9,15.4,0,21.3c2.9,2.9,6.8,4.4,10.6,4.4s7.7-1.5,10.6-4.4l185.7-185.7
		c6.6-6.6,17.4-6.6,24.1,0l98.9,98.9c8.9,8.9,20.7,13.8,33.3,13.8s24.4-4.9,33.3-13.8l272.3-272.3v108c0,8.3,6.7,15,15,15
		s15-6.7,15-15V436.4c0-0.5,0-1-0.1-1.5c0-0.2-0.1-0.4-0.1-0.6c0-0.3-0.1-0.6-0.1-0.8c0-0.2-0.1-0.5-0.2-0.7
		c-0.1-0.2-0.1-0.5-0.2-0.7c-0.1-0.2-0.2-0.5-0.2-0.7c-0.1-0.2-0.2-0.5-0.3-0.7s-0.2-0.4-0.3-0.6s-0.2-0.5-0.3-0.7s-0.2-0.4-0.4-0.6
		c-0.1-0.2-0.3-0.4-0.4-0.7c-0.2-0.2-0.3-0.4-0.5-0.6c-0.1-0.2-0.3-0.4-0.4-0.5c-0.6-0.8-1.3-1.5-2.1-2.1c-0.2-0.1-0.3-0.3-0.5-0.4
		c-0.2-0.2-0.4-0.3-0.7-0.5c-0.2-0.1-0.4-0.3-0.6-0.4c-0.2-0.1-0.4-0.3-0.6-0.4c-0.2-0.1-0.4-0.2-0.7-0.3c-0.2-0.1-0.4-0.2-0.7-0.3
		c-0.2-0.1-0.4-0.2-0.6-0.2c-0.2-0.1-0.5-0.2-0.7-0.3c-0.2-0.1-0.4-0.1-0.7-0.2s-0.5-0.1-0.8-0.2c-0.2,0-0.5-0.1-0.7-0.1
		s-0.5-0.1-0.7-0.1c-0.4,0-0.9-0.1-1.3-0.1c-0.1,0-0.1,0-0.2,0h-144c-8.3,0-15,6.7-15,15s6.7,15,15,15h108L540.1,723.8
		c-3.2,3.2-7.5,5-12,5s-8.8-1.8-12-5l-99.1-99C398.7,606.5,368.8,606.5,350.5,624.8L350.5,624.8z"/>
</g>
</svg>
