<?xml version="1.0" encoding="utf-8"?>
<!-- Generator: Adobe Illustrator 18.1.1, SVG Export Plug-In . SVG Version: 6.00 Build 0)  -->
<svg version="1.1" id="Capa_1" xmlns="http://www.w3.org/2000/svg" xmlns:xlink="http://www.w3.org/1999/xlink" x="0px" y="0px"
	 viewBox="0 0 1024 1450" enable-background="new 0 0 1024 1450" xml:space="preserve">
<g>
	<path fill="#333333" d="M410,694.8c2.8,1.5,5.9,2.3,9,2.3c3.5,0,6.9-1,10-2.9l204.8-130.3c5.4-3.4,8.6-9.3,8.6-15.7
		s-3.3-12.3-8.6-15.7L428.9,402.1c-5.8-3.6-13-3.9-19-0.6c-5.9,3.3-9.6,9.5-9.6,16.3v260.7C400.3,685.3,404,691.5,410,694.8z
		 M437.5,451.7L589,548.1l-151.5,96.4V451.7z"/>
	<path fill="#333333" d="M9.3,213v1024h1005.4V213H9.3z M977.5,250.2v614.4h-931V250.2H977.5z M46.5,1199.8V901.9h930.9v297.9H46.5z
		"/>
	<path fill="#333333" d="M884.4,1032.2H437.5V995c0-10.3-8.3-18.6-18.6-18.6c-10.3,0-18.6,8.3-18.6,18.6v37.2h-74.5
		c-10.3,0-18.6,8.3-18.6,18.6c0,10.3,8.3,18.6,18.6,18.6h74.5v37.2c0,10.3,8.3,18.6,18.6,18.6c10.3,0,18.6-8.3,18.6-18.6v-37.2
		h446.8c10.3,0,18.6-8.3,18.6-18.6C903,1040.5,894.7,1032.2,884.4,1032.2z"/>
	<path fill="#333333" d="M139.6,976.3c-10.3,0-18.6,8.3-18.6,18.6v111.7c0,10.3,8.3,18.6,18.6,18.6s18.6-8.3,18.6-18.6V995
		C158.3,984.7,149.9,976.3,139.6,976.3z"/>
	<path fill="#333333" d="M214.1,976.3c-10.3,0-18.6,8.3-18.6,18.6v111.7c0,10.3,8.3,18.6,18.6,18.6s18.6-8.3,18.6-18.6V995
		C232.7,984.7,224.4,976.3,214.1,976.3z"/>
</g>
</svg>
